<?xml version="1.0" encoding="UTF-8" standalone="no"?>
<!-- Created with Inkscape (http://www.inkscape.org/) -->

<svg
   width="1000"
   height="1000"
   viewBox="0 0 1000 1000"
   version="1.1"
   id="svg8"
   inkscape:version="1.1.1 (3bf5ae0d25, 2021-09-20)"
   sodipodi:docname="MainIcon.svg"
   xmlns:inkscape="http://www.inkscape.org/namespaces/inkscape"
   xmlns:sodipodi="http://sodipodi.sourceforge.net/DTD/sodipodi-0.dtd"
   xmlns="http://www.w3.org/2000/svg"
   xmlns:svg="http://www.w3.org/2000/svg"
   xmlns:rdf="http://www.w3.org/1999/02/22-rdf-syntax-ns#"
   xmlns:cc="http://creativecommons.org/ns#"
   xmlns:dc="http://purl.org/dc/elements/1.1/">
  <defs
     id="defs2" />
  <sodipodi:namedview
     id="base"
     pagecolor="#ffffff"
     bordercolor="#666666"
     borderopacity="1.0"
     inkscape:pageopacity="0.0"
     inkscape:pageshadow="2"
     inkscape:zoom="0.175"
     inkscape:cx="-151.42857"
     inkscape:cy="334.28571"
     inkscape:document-units="px"
     inkscape:current-layer="layer1"
     showgrid="false"
     units="px"
     inkscape:window-width="1360"
     inkscape:window-height="705"
     inkscape:window-x="-8"
     inkscape:window-y="-8"
     inkscape:window-maximized="1"
     inkscape:pagecheckerboard="1" />
  <metadata
     id="metadata5">
    <rdf:RDF>
      <cc:Work
         rdf:about="">
        <dc:format>image/svg+xml</dc:format>
        <dc:type
           rdf:resource="http://purl.org/dc/dcmitype/StillImage" />
        <dc:title />
      </cc:Work>
    </rdf:RDF>
  </metadata>
  <g
     inkscape:label="Capa 1"
     inkscape:groupmode="layer"
     id="layer1"
     transform="translate(0,-32.41665)">
    <g
       id="g55"
       transform="matrix(1.0709684,0,0,1.0709684,-35.483519,-37.78501)">
      <g
         id="g38">
        <path
           style="opacity:1;fill:#784e2c;fill-opacity:1;stroke:none;stroke-width:56.6508;stroke-linecap:round;stroke-linejoin:round;stroke-miterlimit:4;stroke-dasharray:none;stroke-dashoffset:0;stroke-opacity:1;paint-order:stroke fill markers"
           d="M 72.984375,174.54492 V 763.17188 L 500,961.85352 927.01367,763.17188 V 174.54492 L 500,373.22656 Z"
           id="rect30"
           transform="translate(0,32.41665)"
           inkscape:connector-curvature="0" />
        <rect
           style="opacity:1;fill:#784e2c;fill-opacity:1;stroke:none;stroke-width:59.4952;stroke-linecap:round;stroke-linejoin:round;stroke-miterlimit:4;stroke-dasharray:none;stroke-dashoffset:0;stroke-opacity:1;paint-order:stroke fill markers"
           id="rect855"
           width="470.97232"
           height="588.6272"
           x="80.498405"
           y="173.00378"
           transform="matrix(0.90666511,0.42185114,0,1,0,0)" />
        <rect
           transform="matrix(-0.90666511,0.42185114,0,1,0,0)"
           y="638.28088"
           x="-1022.443"
           height="588.6272"
           width="470.97232"
           id="rect857"
           style="opacity:1;fill:#5a3b21;fill-opacity:1;stroke:none;stroke-width:59.4952;stroke-linecap:round;stroke-linejoin:round;stroke-miterlimit:4;stroke-dasharray:none;stroke-dashoffset:0;stroke-opacity:1;paint-order:stroke fill markers" />
      </g>
      <g
         id="g44">
        <path
           style="opacity:1;fill:#5b9b31;fill-opacity:1;stroke:none;stroke-width:56.6508;stroke-linecap:round;stroke-linejoin:round;stroke-miterlimit:4;stroke-dasharray:none;stroke-dashoffset:0;stroke-opacity:1;paint-order:stroke fill markers"
           d="M 500.89498,70.564371 72.985676,206.9627 v 154.19842 l 27.132904,12.62485 v -37.87255 l 22.35703,11.85862 v 36.41504 l 60.59445,28.19309 v 37.06778 L 212.299,463.04784 V 348.49571 l 22.35703,11.85861 v 76.02889 l 26.57139,12.36336 v -44.65122 l 22.35905,11.85861 v 74.33221 l 28.77283,13.38704 v -31.13645 l 33.05208,15.37768 v 30.95199 l 24.69023,11.48764 v -30.95198 l 26.79235,12.46674 v -38.82732 l 22.35703,11.85861 v 37.37185 l 58.39097,27.16737 v -43.39238 l 22.35703,11.85861 v 39.75776 l 30.35804,-14.12492 v -34.59065 l 22.35906,-11.85861 v 36.04612 l 60.06334,-27.94578 v 35.58394 l 27.2971,-12.70188 V 420.72781 l 22.35703,-11.8586 v 73.21525 l 28.79514,-13.39718 v -36.09882 l 22.35905,-11.85861 v 72.76726 l 27.46737,-12.77891 v -35.21299 l 28.26201,-13.14987 v 35.9549 l 26.45382,-12.30864 v -35.9549 l 31.22969,-14.53034 V 369.1601 l 22.35704,-11.85861 v 37.81174 l 55.29761,-25.72813 v -31.57024 l 22.35905,-11.85659 V 206.9627 Z"
           id="path937"
           inkscape:connector-curvature="0" />
        <path
           style="opacity:1;fill:#62a238;fill-opacity:1;stroke:none;stroke-width:56.6508;stroke-linecap:round;stroke-linejoin:round;stroke-miterlimit:4;stroke-dasharray:none;stroke-dashoffset:0;stroke-opacity:1;paint-order:stroke fill markers"
           d="m 72.985676,206.9627 v 154.19841 l 27.132904,12.62486 v -37.87255 l 22.35703,11.85862 v 36.41504 l 60.59417,28.19323 v 37.0672 L 212.299,463.04727 V 348.49571 l 22.35703,11.85861 v 76.02889 l 26.57139,12.36336 v -44.65122 l 22.35905,11.85861 v 74.33221 l 28.77211,13.38693 v -31.13645 l 33.05237,15.37843 v 30.95112 l 24.68983,11.48756 v -30.95112 l 26.79318,12.46619 v -38.82732 l 22.35703,11.85861 v 37.37185 l 58.39097,27.16737 v -43.39238 l 22.35703,11.85861 V 405.64205 Z"
           id="rect873"
           inkscape:connector-curvature="0"
           sodipodi:nodetypes="ccccccccccccccccccccccccccccccc" />
        <path
           style="opacity:1;fill:#436a29;fill-opacity:1;stroke:none;stroke-width:56.6508;stroke-linecap:round;stroke-linejoin:round;stroke-miterlimit:4;stroke-dasharray:none;stroke-dashoffset:0;stroke-opacity:1;paint-order:stroke fill markers"
           d="M 927.01434,206.9627 499.99899,405.64205 v 152.02128 l 30.35804,-14.12492 v -34.59065 l 22.35906,-11.85861 v 36.04612 l 60.0634,-27.94671 v 35.58452 l 27.29704,-12.70096 V 420.72781 l 22.35703,-11.85861 v 73.21526 l 28.79514,-13.39718 v -36.09883 l 22.35905,-11.8586 v 72.76812 l 27.46724,-12.77971 v -35.21384 l 28.26172,-13.14937 v 35.95519 l 26.45462,-12.30859 v -35.95519 l 31.22931,-14.5301 V 369.1601 l 22.35704,-11.85861 v 37.81173 l 55.29761,-25.72812 v -31.57024 l 22.35905,-11.85659 z"
           id="rect887"
           inkscape:connector-curvature="0"
           sodipodi:nodetypes="ccccccccccccccccccccccccccccccc" />
        <path
           style="fill:#5b9b31;fill-opacity:1;stroke:none;stroke-width:1.03788px;stroke-linecap:butt;stroke-linejoin:miter;stroke-opacity:1"
           d="M 72.985098,206.96213 500.89429,70.563587 927.01339,206.96214 499.9992,405.64235 Z"
           id="path859"
           inkscape:connector-curvature="0" />
      </g>
    </g>
    <g
       id="g46067"
       transform="matrix(0.93324909,0,0,0.93324909,-584.55095,-503.19789)">
      <circle
         style="fill:#ecf0f9;fill-opacity:1;stroke-width:6.08403;stroke-linecap:round;stroke-linejoin:round"
         id="circle1286"
         cx="1422.6989"
         cy="1370.2627"
         r="255.97266" />
      <path
         style="color:#000000;fill:#585965;fill-opacity:1;stroke-linecap:round;stroke-linejoin:round;-inkscape-stroke:none"
         d="m 1422.699,1113.4441 c -141.5405,0 -256.8183,115.2779 -256.8183,256.8184 0,141.5405 115.2778,256.8183 256.8183,256.8183 141.5405,0 256.8184,-115.2778 256.8184,-256.8183 0,-141.5405 -115.2779,-256.8184 -256.8184,-256.8184 z m 0,50 c 114.5185,0 206.8184,92.2999 206.8184,206.8184 0,114.5185 -92.2999,206.8183 -206.8184,206.8183 -114.5185,0 -206.8183,-92.2998 -206.8183,-206.8183 0,-114.5185 92.2998,-206.8184 206.8183,-206.8184 z"
         id="circle1288" />
      <g
         id="g1298"
         transform="translate(946.10893,840.04295)"
         style="fill:#b0c4d9;fill-opacity:1">
        <path
           style="color:#000000;fill:#b0c4d9;fill-opacity:1;stroke-width:0.934833;stroke-linecap:round;-inkscape-stroke:none"
           d="m 364.21448,518.04235 a 9.3483337,9.3483337 0 0 0 -9.34834,9.34833 9.3483337,9.3483337 0 0 0 9.34834,9.34834 h 224.75073 a 9.3483337,9.3483337 0 0 0 9.34834,-9.34834 9.3483337,9.3483337 0 0 0 -9.34834,-9.34833 z"
           id="path1290" />
        <path
           style="color:#000000;fill:#b0c4d9;fill-opacity:1;stroke-width:0.934833;stroke-linecap:round;-inkscape-stroke:none"
           d="m 476.58984,405.66881 a 9.3483337,9.3483337 0 0 0 -9.34833,9.34833 v 224.74892 a 9.3483337,9.3483337 0 0 0 9.34833,9.34833 9.3483337,9.3483337 0 0 0 9.34833,-9.34833 V 415.01714 a 9.3483337,9.3483337 0 0 0 -9.34833,-9.34833 z"
           id="path1292" />
        <path
           style="color:#000000;fill:#b0c4d9;fill-opacity:1;stroke-width:0.622219;stroke-linecap:round;-inkscape-stroke:none"
           d="m 428.10121,470.10216 a 6.2221969,6.2221969 0 0 0 -8.79951,-1e-5 6.2221969,6.2221969 0 0 0 0,8.79952 l 105.77807,105.77808 a 6.2221969,6.2221969 0 0 0 8.79952,0 6.2221969,6.2221969 0 0 0 0,-8.79952 z"
           id="path1294" />
        <path
           style="color:#000000;fill:#b0c4d9;fill-opacity:1;stroke-width:0.622219;stroke-linecap:round;-inkscape-stroke:none"
           d="m 533.87843,470.10302 a 6.2221969,6.2221969 0 0 0 -8.79951,0 L 419.30169,575.88024 a 6.2221969,6.2221969 0 0 0 0,8.79951 6.2221969,6.2221969 0 0 0 8.79952,0 L 533.87843,478.90253 a 6.2221969,6.2221969 0 0 0 0,-8.79951 z"
           id="path1296" />
      </g>
      <path
         id="path1333"
         style="fill:#f06955;fill-opacity:1;stroke:none;stroke-width:1px;stroke-linecap:butt;stroke-linejoin:miter;stroke-opacity:1"
         d="m 1561.2354,1228.8963 -173.2301,103.8425 34.6938,34.6938 34.6938,34.6939 z" />
      <path
         id="path1610"
         style="fill:#70b7e5;fill-opacity:1;stroke:none;stroke-width:1px;stroke-linecap:butt;stroke-linejoin:miter;stroke-opacity:1"
         d="m 1284.1627,1505.969 103.8426,-173.23 34.6938,34.6936 34.6938,34.6939 z" />
      <path
         id="path1614"
         style="color:#000000;fill:#585965;fill-opacity:1;stroke-width:0.934833;stroke-linecap:round;-inkscape-stroke:none"
         d="m 1422.698,1554.7117 a 9.3483337,9.3483337 0 0 0 -9.3477,9.3477 v 37.3534 a 231.81813,231.81813 0 0 0 9.3477,0.668 231.81813,231.81813 0 0 0 9.3496,-0.668 l -1e-4,-37.3535 a 9.3483337,9.3483337 0 0 0 -9.3485,-9.3486 z" />
      <path
         id="path1970"
         style="color:#000000;fill:#585965;fill-opacity:1;stroke-width:0.934833;stroke-linecap:round;-inkscape-stroke:none"
         d="m 1422.698,1138.4441 a 231.81813,231.81813 0 0 0 -9.3477,0.668 v 37.3535 a 9.3483337,9.3483337 0 0 0 9.3477,9.3476 9.3483337,9.3483337 0 0 0 9.3486,-9.3486 v -37.791 a 231.81813,231.81813 0 0 0 -9.3496,-0.2304 z" />
      <path
         id="path1974"
         style="color:#000000;fill:#585965;fill-opacity:1;stroke-width:0.934833;stroke-linecap:round;-inkscape-stroke:none"
         d="m 1191.5496,1360.9148 a 231.81813,231.81813 0 0 0 -0.668,9.3477 231.81813,231.81813 0 0 0 0.668,9.3476 h 37.3515 a 9.3483337,9.3483337 0 0 0 9.3486,-9.3486 9.3483337,9.3483337 0 0 0 -9.3487,-9.3486 z" />
      <path
         id="path1978"
         style="color:#000000;fill:#585965;fill-opacity:1;stroke-width:0.934833;stroke-linecap:round;-inkscape-stroke:none"
         d="m 1616.4968,1360.9149 a 9.3483337,9.3483337 0 0 0 -9.3486,9.3485 9.3483337,9.3483337 0 0 0 9.3486,9.3486 l 37.3515,10e-5 a 231.81813,231.81813 0 0 0 0.6681,-9.3476 231.81813,231.81813 0 0 0 -0.2305,-9.3477 z" />
      <path
         id="path26531"
         style="fill:#4b99d2;fill-opacity:1;stroke:none;stroke-width:1px;stroke-linecap:butt;stroke-linejoin:miter;stroke-opacity:1"
         d="m 1422.698,1367.4329 -138.5363,138.5363 173.2301,-103.8426 z" />
      <path
         id="path26706"
         style="fill:#f04b4d;fill-opacity:1;stroke:none;stroke-width:1px;stroke-linecap:butt;stroke-linejoin:miter;stroke-opacity:1"
         d="m 1561.2343,1228.8966 -138.5363,138.5363 34.6938,34.6937 z" />
      <g
         id="g25718"
         transform="translate(709.19893,13.346072)">
        <circle
           style="fill:#484951;fill-opacity:1;stroke:none;stroke-width:37.5;stroke-linecap:round;stroke-linejoin:round;stroke-miterlimit:4;stroke-dasharray:none;stroke-opacity:1"
           id="path19626"
           cx="713.5"
           cy="1356.9166"
           r="22.5" />
        <path
           id="circle19774"
           style="fill:#585965;fill-opacity:1;stroke:none;stroke-width:37.5;stroke-linecap:round;stroke-linejoin:round;stroke-miterlimit:4;stroke-dasharray:none;stroke-opacity:1"
           d="m 713.5,1302 a 22.5,22.5 0 0 0 -22.5,22.5 22.5,22.5 0 0 0 2.42773,10.0703 A 22.5,22.5 0 0 0 702.5,1336.5 22.5,22.5 0 0 0 725,1314 22.5,22.5 0 0 0 722.61719,1303.9375 22.5,22.5 0 0 0 713.5,1302 Z"
           transform="translate(0,32.41665)" />
        <circle
           style="fill:#6f707e;fill-opacity:1;stroke:none;stroke-width:20;stroke-linecap:round;stroke-linejoin:round;stroke-miterlimit:4;stroke-dasharray:none;stroke-opacity:1"
           id="path20128"
           cx="706.2229"
           cy="1350.4636"
           r="4.4194174" />
      </g>
    </g>
  </g>
</svg>
